<svg width="49" height="28" viewBox="0 0 49 28" fill="none" xmlns="http://www.w3.org/2000/svg">
<g clip-path="url(#clip0_2127_1306)">
<path d="M23.5695 12.4762C23.5695 13.3227 23.7176 14.0106 24.0139 14.5185C24.3102 15.0265 24.8393 15.2698 25.6012 15.2698C26.3631 15.2698 26.9028 15.0159 27.1991 14.5185C27.4954 14 27.6435 13.3227 27.6435 12.4762V7.03703H32.797V13.0053C32.797 14.3492 32.5113 15.5132 31.9504 16.4974C31.3896 17.4709 30.5642 18.2328 29.4954 18.7619C28.4266 19.2804 27.125 19.545 25.6012 19.545C24.0774 19.545 22.7864 19.2804 21.7176 18.7619C20.6488 18.2328 19.834 17.4709 19.2626 16.4974C18.7017 15.5132 18.416 14.3492 18.416 13.0053V7.03703H23.5695V12.4762Z" fill="#0048E8"/>
<path d="M10.9131 12H5.16711V19.5556H0.0136719V0H5.16711V7.51323H10.9131V0H16.0348V19.5556H10.9131V12Z" fill="#0048E8"/>
<path d="M18.416 0H23.6224V4.84656H18.416V0Z" fill="#FFB145"/>
<path d="M27.6006 0H32.8069V4.84656H27.6006V0Z" fill="#FFB145"/>
<path d="M48.9871 23.1111V27.9471H48.3945V23.1111H48.9871Z" fill="#798491"/>
<path d="M42.1934 26.1481C42.1934 25.7778 42.2674 25.4603 42.4156 25.1852C42.5637 24.9101 42.7648 24.6878 43.0188 24.5397C43.2833 24.3915 43.569 24.3069 43.8865 24.3069C44.2039 24.3069 44.4685 24.3704 44.7013 24.5079C44.9341 24.6455 45.1034 24.8148 45.2198 25.0159V24.3598H45.823V27.9365H45.2198V27.2698C45.1034 27.4815 44.9235 27.6508 44.6907 27.7884C44.4579 27.9259 44.1934 27.9894 43.8759 27.9894C43.5584 27.9894 43.2727 27.9153 43.0188 27.7566C42.7648 27.5979 42.5637 27.3757 42.4156 27.1005C42.2674 26.8148 42.1934 26.4974 42.1934 26.1376V26.1481ZM45.2198 26.1481C45.2198 25.873 45.1669 25.6402 45.0611 25.4392C44.9553 25.2381 44.8071 25.0899 44.6166 24.9841C44.4367 24.8783 44.2357 24.8254 44.0135 24.8254C43.7912 24.8254 43.5902 24.8783 43.4103 24.9841C43.2304 25.0899 43.0822 25.2381 42.9764 25.4392C42.8706 25.6402 42.8177 25.873 42.8177 26.1481C42.8177 26.4233 42.8706 26.6667 42.9764 26.8677C43.0822 27.0688 43.2304 27.2275 43.4103 27.3333C43.5902 27.4392 43.7912 27.4921 44.0135 27.4921C44.2357 27.4921 44.4367 27.4392 44.6166 27.3333C44.8071 27.2275 44.9553 27.0688 45.0611 26.8677C45.1669 26.6667 45.2198 26.4233 45.2198 26.1587V26.1481Z" fill="#798491"/>
<path d="M39.1987 24.8571V26.963C39.1987 27.1323 39.2304 27.2593 39.3045 27.3333C39.3786 27.4074 39.5055 27.4392 39.6854 27.4392H40.1193V27.9471H39.5796C39.2516 27.9471 38.9976 27.873 38.8389 27.7143C38.6801 27.5556 38.5955 27.3122 38.5955 26.963V24.8571H38.1299V24.3704H38.5955V23.4709H39.1881V24.3704H40.1193V24.8571H39.1881H39.1987Z" fill="#798491"/>
<path d="M34.4687 24.3069C34.9026 24.3069 35.2518 24.4444 35.5269 24.709C35.802 24.9735 35.929 25.3439 35.929 25.8413V27.9471H35.3364V25.9259C35.3364 25.5661 35.2518 25.3016 35.0719 25.1111C34.892 24.9206 34.6486 24.8254 34.3417 24.8254C34.0348 24.8254 33.7809 24.9206 33.5904 25.1217C33.4105 25.3228 33.3152 25.5979 33.3152 25.9788V27.9577H32.7227V24.381H33.3152V24.8889C33.4317 24.709 33.5904 24.5608 33.7914 24.4656C33.9925 24.3704 34.2253 24.3175 34.4687 24.3175V24.3069Z" fill="#798491"/>
<path d="M30.3731 26.0212C30.3731 26.1376 30.3731 26.254 30.3519 26.381H27.4948C27.5159 26.7302 27.6323 27.0053 27.8546 27.2063C28.0768 27.4074 28.3413 27.5026 28.6588 27.5026C28.9128 27.5026 29.1244 27.4392 29.2937 27.3228C29.463 27.1958 29.59 27.037 29.6641 26.836H30.299C30.2038 27.1852 30.0133 27.4603 29.7276 27.6825C29.4419 27.8942 29.0821 28 28.6588 28C28.3202 28 28.0133 27.9259 27.7487 27.7672C27.4842 27.619 27.2726 27.3968 27.1244 27.1217C26.9763 26.836 26.8916 26.5079 26.8916 26.1376C26.8916 25.7672 26.9657 25.4392 27.1138 25.164C27.262 24.8889 27.4736 24.6772 27.7382 24.5291C28.0133 24.381 28.3202 24.2963 28.6694 24.2963C29.0186 24.2963 29.3043 24.3704 29.5689 24.5185C29.8334 24.6667 30.0345 24.8677 30.172 25.1323C30.3202 25.3862 30.3837 25.6825 30.3837 26.0106L30.3731 26.0212ZM29.7593 25.8942C29.7593 25.672 29.7064 25.4709 29.6112 25.3122C29.5159 25.1429 29.3784 25.0265 29.1985 24.9418C29.0292 24.8571 28.8387 24.8148 28.6271 24.8148C28.3308 24.8148 28.0662 24.9101 27.8546 25.1005C27.6429 25.291 27.5265 25.5556 27.4948 25.8942H29.7593Z" fill="#798491"/>
<path d="M23.9609 27.9471L22.8815 26.0847H22.1619V27.9471H21.5693V23.3968H23.0402C23.3894 23.3968 23.6752 23.4603 23.908 23.5767C24.1513 23.6931 24.3207 23.8519 24.4476 24.0529C24.5746 24.254 24.6275 24.4868 24.6275 24.7407C24.6275 25.0582 24.5323 25.3333 24.3524 25.5661C24.1725 25.8095 23.908 25.9683 23.5376 26.0423L24.6804 27.9471H23.9715H23.9609ZM22.1619 25.6085H23.0402C23.3577 25.6085 23.6011 25.5344 23.7704 25.3757C23.9291 25.2169 24.0138 25.0053 24.0138 24.7407C24.0138 24.4762 23.9291 24.2646 23.7704 24.1164C23.6117 23.9683 23.3683 23.8942 23.0402 23.8942H22.1619V25.619V25.6085Z" fill="#798491"/>
<path d="M13.4207 24.9524C13.5265 24.7513 13.6747 24.5926 13.8652 24.4762C14.0662 24.3598 14.299 24.3069 14.5742 24.3069V24.9206H14.4154C13.7488 24.9206 13.4207 25.2804 13.4207 26V27.9471H12.8281V24.3704H13.4207V24.9524Z" fill="#798491"/>
<path d="M6.62793 26.1481C6.62793 25.7778 6.702 25.4603 6.85015 25.1852C6.9983 24.9101 7.19936 24.6878 7.45333 24.5397C7.71788 24.3915 8.00359 24.3069 8.32105 24.3069C8.63851 24.3069 8.90306 24.3704 9.13587 24.5079C9.36867 24.6455 9.53798 24.8148 9.65438 25.0159V24.3598H10.2576V27.9365H9.65438V27.2698C9.53798 27.4815 9.35809 27.6508 9.12528 27.7884C8.89248 27.9259 8.62793 27.9894 8.31047 27.9894C7.99301 27.9894 7.70729 27.9153 7.45333 27.7566C7.19936 27.5979 6.9983 27.3757 6.85015 27.1005C6.702 26.8148 6.62793 26.4974 6.62793 26.1376V26.1481ZM9.65438 26.1481C9.65438 25.873 9.60147 25.6402 9.49565 25.4392C9.38983 25.2381 9.24169 25.0899 9.05121 24.9841C8.87132 24.8783 8.67026 24.8254 8.44804 24.8254C8.22581 24.8254 8.02476 24.8783 7.84486 24.9841C7.66497 25.0899 7.51682 25.2381 7.411 25.4392C7.30518 25.6402 7.25227 25.873 7.25227 26.1481C7.25227 26.4233 7.30518 26.6667 7.411 26.8677C7.51682 27.0688 7.66497 27.2275 7.84486 27.3333C8.02476 27.4392 8.22581 27.4921 8.44804 27.4921C8.67026 27.4921 8.87132 27.4392 9.05121 27.3333C9.24169 27.2275 9.38983 27.0688 9.49565 26.8677C9.60147 26.6667 9.65438 26.4233 9.65438 26.1587V26.1481Z" fill="#798491"/>
<path d="M0.0136719 25.672C0.0136719 25.2275 0.10891 24.8254 0.309968 24.4762C0.511026 24.1164 0.786159 23.8413 1.12478 23.6402C1.47399 23.4392 1.85494 23.3439 2.27822 23.3439C2.77558 23.3439 3.20944 23.4603 3.57981 23.7037C3.95018 23.9471 4.21473 24.2857 4.39462 24.7196H3.68563C3.55865 24.4444 3.37875 24.2328 3.13537 24.0847C2.90256 23.9365 2.61685 23.8624 2.2888 23.8624C1.96076 23.8624 1.68563 23.9365 1.43166 24.0847C1.17769 24.2328 0.976635 24.4444 0.839069 24.7196C0.690921 24.9947 0.627428 25.3122 0.627428 25.672C0.627428 26.0317 0.701503 26.3492 0.839069 26.6243C0.987217 26.8995 1.17769 27.1005 1.43166 27.2487C1.68563 27.3968 1.97134 27.4709 2.2888 27.4709C2.60626 27.4709 2.90256 27.3968 3.13537 27.2593C3.37875 27.1111 3.55865 26.8995 3.68563 26.6243H4.39462C4.22531 27.0582 3.95018 27.3968 3.57981 27.6402C3.20944 27.873 2.77558 27.9894 2.27822 27.9894C1.85494 27.9894 1.47399 27.8942 1.12478 27.6931C0.775577 27.4921 0.511026 27.2169 0.309968 26.8677C0.10891 26.5185 0.0136719 26.1164 0.0136719 25.672Z" fill="#798491"/>
<path d="M40.0984 3.82011V7.77778H48.0984V11.4497H40.0984V15.7355H48.9978V19.5556H35.1777V0H48.9978V3.82011H40.0984Z" fill="#0048E8"/>
</g>
<defs>
<clipPath id="clip0_2127_1306">
<rect width="48.9735" height="28" fill="white" transform="translate(0.0136719)"/>
</clipPath>
</defs>
</svg>
