<svg width="64" height="36" viewBox="0 0 64 36" fill="none" xmlns="http://www.w3.org/2000/svg">
<g clip-path="url(#clip0_2631_789)">
<path d="M30.8028 16.0408C30.8028 17.1293 30.9933 18.0136 31.3742 18.6667C31.7552 19.3197 32.4354 19.6327 33.415 19.6327C34.3946 19.6327 35.0885 19.3061 35.4695 18.6667C35.8504 18 36.0409 17.1293 36.0409 16.0408V9.04762H42.6667V16.7211C42.6667 18.449 42.2994 19.9456 41.5783 21.2109C40.8572 22.4626 39.796 23.4422 38.4218 24.1224C37.0477 24.7891 35.3742 25.1293 33.415 25.1293C31.4559 25.1293 29.796 24.7891 28.4218 24.1224C27.0477 23.4422 26.0001 22.4626 25.2654 21.2109C24.5443 19.9456 24.1769 18.449 24.1769 16.7211V9.04762H30.8028V16.0408Z" fill="#0048E8"/>
<path d="M14.5306 15.4286H7.14288V25.1429H0.517029V0H7.14288V9.65986H14.5306V0H21.1157V25.1429H14.5306V15.4286Z" fill="#0048E8"/>
<path d="M24.1769 0H30.8708V6.23129H24.1769V0Z" fill="#FFB145"/>
<path d="M35.9865 0H42.6803V6.23129H35.9865V0Z" fill="#FFB145"/>
<path d="M63.483 29.7143V35.932H62.7211V29.7143H63.483Z" fill="#798491"/>
<path d="M54.7484 33.619C54.7484 33.1429 54.8436 32.7347 55.0341 32.381C55.2245 32.0272 55.483 31.7415 55.8096 31.551C56.1497 31.3605 56.5171 31.2517 56.9252 31.2517C57.3334 31.2517 57.6735 31.3333 57.9728 31.5102C58.2722 31.6871 58.4898 31.9048 58.6395 32.1633V31.3197H59.415V35.9184H58.6395V35.0612C58.4898 35.3333 58.2586 35.551 57.9592 35.7279C57.6599 35.9048 57.3198 35.9864 56.9116 35.9864C56.5035 35.9864 56.1361 35.8912 55.8096 35.6871C55.483 35.483 55.2245 35.1973 55.0341 34.8435C54.8436 34.4762 54.7484 34.068 54.7484 33.6054V33.619ZM58.6395 33.619C58.6395 33.2653 58.5715 32.966 58.4354 32.7075C58.2994 32.449 58.1089 32.2585 57.864 32.1225C57.6327 31.9864 57.3742 31.9184 57.0885 31.9184C56.8028 31.9184 56.5443 31.9864 56.313 32.1225C56.0817 32.2585 55.8912 32.449 55.7552 32.7075C55.6191 32.966 55.5511 33.2653 55.5511 33.619C55.5511 33.9728 55.6191 34.2857 55.7552 34.5442C55.8912 34.8027 56.0817 35.0068 56.313 35.1429C56.5443 35.2789 56.8028 35.3469 57.0885 35.3469C57.3742 35.3469 57.6327 35.2789 57.864 35.1429C58.1089 35.0068 58.2994 34.8027 58.4354 34.5442C58.5715 34.2857 58.6395 33.9728 58.6395 33.6327V33.619Z" fill="#798491"/>
<path d="M50.898 31.9592V34.6667C50.898 34.8844 50.9388 35.0476 51.0341 35.1429C51.1293 35.2381 51.2926 35.2789 51.5239 35.2789H52.0817V35.932H51.3878C50.966 35.932 50.6395 35.8367 50.4354 35.6327C50.2313 35.4286 50.1225 35.1156 50.1225 34.6667V31.9592H49.5239V31.3333H50.1225V30.1769H50.8844V31.3333H52.0817V31.9592H50.8844H50.898Z" fill="#798491"/>
<path d="M44.8164 31.2517C45.3742 31.2517 45.8232 31.4286 46.1769 31.7687C46.5307 32.1088 46.6939 32.585 46.6939 33.2245V35.932H45.932V33.3333C45.932 32.8707 45.8232 32.5306 45.5919 32.2857C45.3606 32.0408 45.0477 31.9184 44.6531 31.9184C44.2585 31.9184 43.932 32.0408 43.6871 32.2993C43.4558 32.5578 43.3334 32.9116 43.3334 33.4014V35.9456H42.5715V31.3469H43.3334V32C43.483 31.7687 43.6871 31.5782 43.9456 31.4558C44.2041 31.3333 44.5034 31.2653 44.8164 31.2653V31.2517Z" fill="#798491"/>
<path d="M39.5511 33.4558C39.5511 33.6054 39.5511 33.7551 39.5239 33.9184H35.8504C35.8776 34.3673 36.0273 34.7211 36.313 34.9796C36.5987 35.2381 36.9388 35.3605 37.347 35.3605C37.6735 35.3605 37.9456 35.2789 38.1633 35.1292C38.381 34.966 38.5443 34.7619 38.6395 34.5034H39.4558C39.3334 34.9524 39.0885 35.3061 38.7211 35.5918C38.3538 35.8639 37.8912 36 37.347 36C36.9116 36 36.5171 35.9048 36.1769 35.7007C35.8368 35.5102 35.5647 35.2245 35.3742 34.8707C35.1837 34.5034 35.0749 34.0816 35.0749 33.6054C35.0749 33.1292 35.1701 32.7075 35.3606 32.3537C35.5511 32 35.8232 31.7279 36.1633 31.5374C36.5171 31.3469 36.9116 31.2381 37.3606 31.2381C37.8096 31.2381 38.1769 31.3333 38.5171 31.5238C38.8572 31.7143 39.1157 31.9728 39.2926 32.3129C39.4831 32.6395 39.5647 33.0204 39.5647 33.4422L39.5511 33.4558ZM38.762 33.2925C38.762 33.0068 38.6939 32.7483 38.5715 32.5442C38.449 32.3265 38.2722 32.1769 38.0409 32.068C37.8232 31.9592 37.5783 31.9048 37.3062 31.9048C36.9252 31.9048 36.5851 32.0272 36.313 32.2721C36.0409 32.517 35.8912 32.8571 35.8504 33.2925H38.762Z" fill="#798491"/>
<path d="M31.3062 35.932L29.9184 33.5374H28.9932V35.932H28.2313V30.0816H30.1225C30.5715 30.0816 30.9388 30.1633 31.2381 30.3129C31.551 30.4626 31.7687 30.6667 31.932 30.9252C32.0953 31.1837 32.1633 31.483 32.1633 31.8095C32.1633 32.2177 32.0408 32.5714 31.8096 32.8707C31.5783 33.1837 31.2381 33.3878 30.7619 33.483L32.2313 35.932H31.3198H31.3062ZM28.9932 32.9252H30.1225C30.5306 32.9252 30.8436 32.8299 31.0613 32.6259C31.2653 32.4218 31.3742 32.1497 31.3742 31.8095C31.3742 31.4694 31.2653 31.1973 31.0613 31.0068C30.8572 30.8163 30.5442 30.7211 30.1225 30.7211H28.9932V32.9388V32.9252Z" fill="#798491"/>
<path d="M17.7551 32.0816C17.8912 31.8231 18.0817 31.619 18.3266 31.4694C18.5851 31.3197 18.8844 31.2517 19.2381 31.2517V32.0408H19.034C18.1769 32.0408 17.7551 32.5034 17.7551 33.4286V35.932H16.9932V31.3333H17.7551V32.0816Z" fill="#798491"/>
<path d="M9.02045 33.619C9.02045 33.1429 9.11568 32.7347 9.30616 32.381C9.49664 32.0272 9.75514 31.7415 10.0817 31.551C10.4218 31.3605 10.7892 31.2517 11.1973 31.2517C11.6055 31.2517 11.9456 31.3333 12.2449 31.5102C12.5443 31.6871 12.7619 31.9048 12.9116 32.1633V31.3197H13.6871V35.9184H12.9116V35.0612C12.7619 35.3333 12.5307 35.551 12.2313 35.7279C11.932 35.9048 11.5919 35.9864 11.1837 35.9864C10.7755 35.9864 10.4082 35.8912 10.0817 35.6871C9.75514 35.483 9.49664 35.1973 9.30616 34.8435C9.11568 34.4762 9.02045 34.068 9.02045 33.6054V33.619ZM12.9116 33.619C12.9116 33.2653 12.8436 32.966 12.7075 32.7075C12.5715 32.449 12.381 32.2585 12.1361 32.1225C11.9048 31.9864 11.6463 31.9184 11.3606 31.9184C11.0749 31.9184 10.8164 31.9864 10.5851 32.1225C10.3538 32.2585 10.1633 32.449 10.0272 32.7075C9.89119 32.966 9.82317 33.2653 9.82317 33.619C9.82317 33.9728 9.89119 34.2857 10.0272 34.5442C10.1633 34.8027 10.3538 35.0068 10.5851 35.1429C10.8164 35.2789 11.0749 35.3469 11.3606 35.3469C11.6463 35.3469 11.9048 35.2789 12.1361 35.1429C12.381 35.0068 12.5715 34.8027 12.7075 34.5442C12.8436 34.2857 12.9116 33.9728 12.9116 33.6327V33.619Z" fill="#798491"/>
<path d="M0.517059 33.0068C0.517059 32.4354 0.639508 31.9184 0.898012 31.4694C1.15652 31.0068 1.51026 30.6531 1.94563 30.3946C2.39461 30.1361 2.88441 30.0136 3.42862 30.0136C4.06808 30.0136 4.6259 30.1633 5.10209 30.4762C5.57828 30.7891 5.91842 31.2245 6.14971 31.7823H5.23815C5.07488 31.4286 4.84359 31.1565 4.53066 30.966C4.23135 30.7755 3.864 30.6803 3.44223 30.6803C3.02046 30.6803 2.66672 30.7755 2.34019 30.966C2.01366 31.1565 1.75515 31.4286 1.57828 31.7823C1.38781 32.1361 1.30617 32.5442 1.30617 33.0068C1.30617 33.4694 1.40141 33.8775 1.57828 34.2313C1.76876 34.585 2.01366 34.8435 2.34019 35.034C2.66672 35.2245 3.03407 35.3197 3.44223 35.3197C3.85039 35.3197 4.23135 35.2245 4.53066 35.0476C4.84359 34.8571 5.07488 34.585 5.23815 34.2313H6.14971C5.93202 34.7891 5.57828 35.2245 5.10209 35.5374C4.6259 35.8367 4.06808 35.9864 3.42862 35.9864C2.88441 35.9864 2.39461 35.8639 1.94563 35.6054C1.49665 35.3469 1.15652 34.9932 0.898012 34.5442C0.639508 34.0952 0.517059 33.5782 0.517059 33.0068Z" fill="#798491"/>
<path d="M52.0545 4.91156V10H62.3402V14.7211H52.0545V20.2313H63.4967V25.1429H45.728V0H63.4967V4.91156H52.0545Z" fill="#0048E8"/>
</g>
<defs>
<clipPath id="clip0_2631_789">
<rect width="62.966" height="36" fill="white" transform="translate(0.517029)"/>
</clipPath>
</defs>
</svg>
